<svg width="16" height="16" viewBox="0 0 16 16" fill="none" xmlns="http://www.w3.org/2000/svg">
<path id="Vector" d="M14.9518 0.56189H1.15176C0.819883 0.56189 0.551758 0.830015 0.551758 1.16189V14.9619C0.551758 15.2938 0.819883 15.5619 1.15176 15.5619H14.9518C15.2836 15.5619 15.5518 15.2938 15.5518 14.9619V1.16189C15.5518 0.830015 15.2836 0.56189 14.9518 0.56189ZM13.2193 4.94001H12.0211C11.0818 4.94001 10.8999 5.38626 10.8999 6.04251V7.48814H13.1424L12.8499 9.75126H10.8999V15.5619H8.56176V9.75314H6.60613V7.48814H8.56176V5.81939C8.56176 3.88251 9.74488 2.82689 11.4736 2.82689C12.3024 2.82689 13.013 2.88876 13.2211 2.91689V4.94001H13.2193Z" fill="#2E60AB"/>
</svg>
