<svg width="16" height="16" viewBox="0 0 16 16" fill="none" xmlns="http://www.w3.org/2000/svg">
<path id="Vector" fill-rule="evenodd" clip-rule="evenodd" d="M4.95971 0.196611C5.75949 0.159793 6.01449 0.151611 8.05176 0.151611C10.089 0.151611 10.344 0.160475 11.1431 0.196611C11.9422 0.232748 12.4877 0.360248 12.9649 0.54502C13.4647 0.733884 13.9181 1.02911 14.2931 1.41093C14.6749 1.78525 14.9695 2.23798 15.1577 2.73843C15.3431 3.2157 15.4699 3.76116 15.5068 4.55888C15.5436 5.36002 15.5518 5.61502 15.5518 7.65161C15.5518 9.68888 15.5429 9.94388 15.5068 10.7437C15.4706 11.5414 15.3431 12.0868 15.1577 12.5641C14.9695 13.0646 14.6744 13.5181 14.2931 13.893C13.9181 14.2748 13.4647 14.5693 12.9649 14.7575C12.4877 14.943 11.9422 15.0698 11.1445 15.1066C10.344 15.1434 10.089 15.1516 8.05176 15.1516C6.01449 15.1516 5.75949 15.1427 4.95971 15.1066C4.16199 15.0705 3.61653 14.943 3.13926 14.7575C2.63875 14.5693 2.18527 14.2743 1.81039 13.893C1.42884 13.5184 1.13356 13.0652 0.945167 12.5648C0.760394 12.0875 0.633576 11.5421 0.596758 10.7443C0.55994 9.9432 0.551758 9.6882 0.551758 7.65161C0.551758 5.61434 0.560621 5.35934 0.596758 4.56025C0.632894 3.76116 0.760394 3.2157 0.945167 2.73843C1.13384 2.23803 1.42934 1.78478 1.81108 1.41025C2.18542 1.02877 2.63844 0.733505 3.13858 0.54502C3.61585 0.360248 4.1613 0.233429 4.95903 0.196611H4.95971ZM11.0824 1.54661C10.2915 1.51047 10.0543 1.50298 8.05176 1.50298C6.04926 1.50298 5.81199 1.51047 5.02108 1.54661C4.28948 1.58002 3.89267 1.70207 3.62812 1.80502C3.27835 1.94138 3.02812 2.10298 2.76562 2.36548C2.51679 2.60756 2.32529 2.90226 2.20517 3.22798C2.10221 3.49252 1.98017 3.88934 1.94676 4.62093C1.91062 5.41184 1.90312 5.64911 1.90312 7.65161C1.90312 9.65411 1.91062 9.89138 1.94676 10.6823C1.98017 11.4139 2.10221 11.8107 2.20517 12.0752C2.32517 12.4005 2.51676 12.6957 2.76562 12.9377C3.00767 13.1866 3.30289 13.3782 3.62812 13.4982C3.89267 13.6012 4.28948 13.7232 5.02108 13.7566C5.81199 13.7927 6.04858 13.8002 8.05176 13.8002C10.0549 13.8002 10.2915 13.7927 11.0824 13.7566C11.814 13.7232 12.2108 13.6012 12.4754 13.4982C12.8252 13.3618 13.0754 13.2002 13.3379 12.9377C13.5868 12.6957 13.7783 12.4005 13.8983 12.0752C14.0013 11.8107 14.1233 11.4139 14.1568 10.6823C14.1929 9.89138 14.2004 9.65411 14.2004 7.65161C14.2004 5.64911 14.1929 5.41184 14.1568 4.62093C14.1233 3.88934 14.0013 3.49252 13.8983 3.22798C13.762 2.8782 13.6004 2.62798 13.3379 2.36548C13.0958 2.11666 12.8011 1.92516 12.4754 1.80502C12.2108 1.70207 11.814 1.58002 11.0824 1.54661ZM7.0938 9.96366C7.6288 10.1864 8.22452 10.2164 8.77921 10.0487C9.3339 9.88097 9.81316 9.52587 10.1351 9.04405C10.4571 8.56223 10.6018 7.98357 10.5445 7.40691C10.4872 6.83025 10.2315 6.29137 9.82108 5.88229C9.55942 5.6208 9.24304 5.42057 8.89471 5.29603C8.54639 5.17149 8.17478 5.12572 7.80664 5.16203C7.4385 5.19834 7.083 5.31582 6.76572 5.50602C6.44843 5.69621 6.17727 5.95439 5.97174 6.26196C5.76621 6.56954 5.63143 6.91885 5.57711 7.28477C5.52279 7.65068 5.55027 8.02408 5.65758 8.3781C5.76489 8.73212 5.94936 9.05794 6.1977 9.3321C6.44605 9.60627 6.75209 9.82196 7.0938 9.96366ZM5.32585 4.9257C5.68382 4.56773 6.10879 4.28377 6.57651 4.09004C7.04422 3.89631 7.54551 3.79659 8.05176 3.79659C8.55801 3.79659 9.0593 3.89631 9.52701 4.09004C9.99472 4.28377 10.4197 4.56773 10.7777 4.9257C11.1356 5.28367 11.4196 5.70865 11.6133 6.17636C11.8071 6.64407 11.9068 7.14536 11.9068 7.65161C11.9068 8.15786 11.8071 8.65915 11.6133 9.12686C11.4196 9.59457 11.1356 10.0195 10.7777 10.3775C10.0547 11.1005 9.07417 11.5066 8.05176 11.5066C7.02934 11.5066 6.0488 11.1005 5.32585 10.3775C4.60289 9.65456 4.19674 8.67403 4.19674 7.65161C4.19674 6.6292 4.60289 5.64866 5.32585 4.9257ZM12.7618 4.3707C12.8505 4.28702 12.9215 4.18639 12.9706 4.07478C13.0197 3.96316 13.0459 3.84282 13.0477 3.72088C13.0495 3.59895 13.0268 3.47789 12.981 3.36489C12.9351 3.25189 12.8671 3.14923 12.7808 3.063C12.6946 2.97677 12.5919 2.90872 12.4789 2.86287C12.3659 2.81703 12.2449 2.79432 12.1229 2.7961C12.001 2.79788 11.8807 2.8241 11.769 2.87322C11.6574 2.92234 11.5568 2.99336 11.4731 3.08207C11.3104 3.25459 11.2213 3.48374 11.2247 3.72088C11.2282 3.95802 11.3239 4.18448 11.4916 4.35219C11.6593 4.51989 11.8858 4.61563 12.1229 4.61909C12.3601 4.62255 12.5892 4.53345 12.7618 4.3707Z" fill="url(#paint0_radial_1_79)"/>
<defs>
<radialGradient id="paint0_radial_1_79" cx="0" cy="0" r="1" gradientUnits="userSpaceOnUse" gradientTransform="translate(2.44911 13.8051) rotate(117.747) scale(31.868)">
<stop stop-color="#FFC700"/>
<stop offset="0.375" stop-color="#FF0099"/>
<stop offset="0.536458" stop-color="#0029FF"/>
</radialGradient>
</defs>
</svg>
