<svg width="11" height="14" viewBox="0 0 11 14" fill="none" xmlns="http://www.w3.org/2000/svg">
<path id="Vector" d="M5.60633 13.3109C4.6943 12.533 3.84892 11.6801 3.07904 10.7612C1.92371 9.38135 0.551758 7.3263 0.551758 5.36802C0.551257 4.36791 0.847457 3.39013 1.40287 2.55842C1.95829 1.72671 2.74795 1.07846 3.67192 0.695716C4.59589 0.312969 5.61265 0.212927 6.5935 0.408251C7.57435 0.603575 8.47521 1.08548 9.18208 1.79299C9.6527 2.26152 10.0257 2.81874 10.2796 3.43239C10.5334 4.04604 10.663 4.70394 10.6609 5.36802C10.6609 7.3263 9.28894 9.38135 8.13361 10.7612C7.36373 11.6801 6.51836 12.533 5.60633 13.3109ZM5.60633 3.20177C5.0318 3.20177 4.48081 3.43 4.07456 3.83625C3.66831 4.2425 3.44008 4.79349 3.44008 5.36802C3.44008 5.94254 3.66831 6.49353 4.07456 6.89978C4.48081 7.30603 5.0318 7.53426 5.60633 7.53426C6.18085 7.53426 6.73185 7.30603 7.13809 6.89978C7.54434 6.49353 7.77257 5.94254 7.77257 5.36802C7.77257 4.79349 7.54434 4.2425 7.13809 3.83625C6.73185 3.43 6.18085 3.20177 5.60633 3.20177Z" fill="#9BCB8E"/>
</svg>
