<svg width="200" height="257" viewBox="0 0 200 257" fill="none" xmlns="http://www.w3.org/2000/svg">
<g id="ph:pill">
<path id="Vector" d="M216.889 40.536C206.901 30.5481 193.354 24.937 179.229 24.937C165.104 24.937 151.557 30.5481 141.569 40.536L40.0688 142.026C30.2896 152.057 24.8563 165.536 24.9457 179.545C25.0352 193.554 30.6402 206.963 40.5466 216.868C50.453 226.773 63.8631 232.376 77.8717 232.464C91.8802 232.552 105.359 227.116 115.389 217.336L216.899 115.846C226.87 105.85 232.469 92.3076 232.467 78.1889C232.465 64.0702 226.863 50.5289 216.889 40.536ZM104.079 206.026C97.0916 213.014 87.6145 216.941 77.7323 216.942C67.8501 216.943 58.3722 213.018 51.3838 206.031C44.3953 199.044 40.4687 189.567 40.4678 179.685C40.4668 169.802 44.3916 160.324 51.3788 153.336L96.4688 108.246L149.169 160.936L104.079 206.026ZM205.579 104.536L160.469 149.626L107.789 96.936L152.889 51.846C159.904 44.9932 169.337 41.1822 179.144 41.2395C188.95 41.2968 198.338 45.2177 205.273 52.152C212.207 59.0863 216.128 68.4747 216.185 78.2811C216.243 88.0875 212.432 97.5211 205.579 104.536ZM190.149 83.276C190.893 84.0189 191.483 84.9013 191.885 85.8724C192.288 86.8436 192.495 87.8846 192.495 88.936C192.495 89.9873 192.288 91.0283 191.885 91.9995C191.483 92.9707 190.893 93.853 190.149 94.596L166.149 118.596C165.405 119.339 164.523 119.928 163.552 120.329C162.581 120.731 161.541 120.937 160.49 120.937C159.44 120.936 158.399 120.729 157.429 120.326C156.458 119.924 155.576 119.334 154.834 118.591C154.091 117.848 153.502 116.965 153.101 115.995C152.699 115.024 152.492 113.983 152.493 112.932C152.493 111.882 152.701 110.841 153.103 109.871C153.506 108.9 154.095 108.019 154.839 107.276L178.839 83.276C180.339 81.7768 182.373 80.9347 184.494 80.9347C186.615 80.9347 188.649 81.7768 190.149 83.276Z" fill="black"/>
</g>
</svg>
