<svg width="17" height="18" viewBox="0 0 17 18" fill="none" xmlns="http://www.w3.org/2000/svg">
<g id="tabler:hand-click">
<g id="Group">
<path id="Vector" d="M6.03442 9.62133V3.79585C6.03442 3.5232 6.14273 3.26172 6.33553 3.06892C6.52832 2.87613 6.7898 2.76782 7.06245 2.76782C7.3351 2.76782 7.59658 2.87613 7.78938 3.06892C7.98217 3.26172 8.09048 3.5232 8.09048 3.79585V8.93598M8.09048 8.59331V7.2226C8.09048 6.94995 8.19879 6.68847 8.39158 6.49568C8.58437 6.30289 8.84585 6.19458 9.1185 6.19458C9.39115 6.19458 9.65264 6.30289 9.84543 6.49568C10.0382 6.68847 10.1465 6.94995 10.1465 7.2226V8.93598M10.1465 7.90795C10.1465 7.63531 10.2548 7.37382 10.4476 7.18103C10.6404 6.98824 10.9019 6.87993 11.1746 6.87993C11.4472 6.87993 11.7087 6.98824 11.9015 7.18103C12.0943 7.37382 12.2026 7.63531 12.2026 7.90795V8.93598" stroke="#F7FAF3" stroke-width="1.3707" stroke-linecap="round" stroke-linejoin="round"/>
<path id="Vector_2" d="M12.2025 8.59326C12.2025 8.32061 12.3108 8.05913 12.5036 7.86634C12.6964 7.67355 12.9579 7.56524 13.2305 7.56524C13.5032 7.56524 13.7647 7.67355 13.9575 7.86634C14.1503 8.05913 14.2586 8.32061 14.2586 8.59326V11.6773C14.2586 12.7679 13.8253 13.8139 13.0542 14.585C12.283 15.3562 11.2371 15.7894 10.1465 15.7894H8.77576H8.91832C8.23731 15.7896 7.56693 15.6205 6.96739 15.2976C6.36784 14.9746 5.85789 14.5078 5.48334 13.939L5.34901 13.7334C5.13518 13.4051 4.38472 12.0968 3.09695 9.8077C2.96567 9.57436 2.9306 9.29901 2.9992 9.04022C3.06781 8.78142 3.23467 8.5596 3.46429 8.42192C3.70888 8.27517 3.99549 8.21434 4.2786 8.24911C4.56171 8.28388 4.82509 8.41225 5.02689 8.61382L6.03436 9.62129M3.97831 2.76778L3.29296 2.08243M3.29296 5.50918H2.6076M10.1465 2.76778L10.8318 2.08243M10.8318 4.82383H11.5172" stroke="#F7FAF3" stroke-width="1.3707" stroke-linecap="round" stroke-linejoin="round"/>
</g>
</g>
</svg>
