<svg width="16" height="18" viewBox="0 0 16 18" fill="none" xmlns="http://www.w3.org/2000/svg">
<g id="logos:tiktok-icon" clip-path="url(#clip0_1_147)">
<path id="Vector" d="M11.2738 6.27286C12.3688 7.05515 13.7101 7.51544 15.1588 7.51544V4.7292C14.8846 4.72926 14.6112 4.70065 14.3429 4.64385V6.83702C12.8943 6.83702 11.5532 6.37679 10.458 5.59456V11.2805C10.458 14.125 8.15093 16.4306 5.30525 16.4306C4.24345 16.4306 3.25652 16.1098 2.43671 15.5595C3.37241 16.5158 4.67731 17.109 6.1209 17.109C8.96682 17.109 11.274 14.8033 11.274 11.9588V6.27286H11.2738ZM12.2804 3.46188C11.7208 2.85087 11.3533 2.06125 11.2738 1.18827V0.829926H10.5007C10.6953 1.93944 11.3592 2.88734 12.2804 3.46188ZM4.2366 13.3769C3.92397 12.9672 3.75497 12.466 3.75573 11.9506C3.75573 10.6497 4.81096 9.59489 6.11287 9.59489C6.35545 9.59477 6.59661 9.632 6.82786 9.70527V6.85672C6.55762 6.81973 6.28492 6.80396 6.01233 6.80976V9.02691C5.78097 8.95358 5.53969 8.91637 5.29699 8.91659C3.99514 8.91659 2.93997 9.97129 2.93997 11.2724C2.93997 12.1924 3.46738 12.9889 4.2366 13.3769Z" fill="#FF004F"/>
<path id="Vector_2" d="M10.458 5.5945C11.5532 6.37673 12.8943 6.83696 14.3429 6.83696V4.64379C13.5343 4.47162 12.8185 4.04932 12.2803 3.46188C11.3591 2.88728 10.6953 1.93938 10.5007 0.829926H8.46989V11.9587C8.46526 13.256 7.41184 14.3065 6.11275 14.3065C5.34728 14.3065 4.66716 13.9418 4.23648 13.3768C3.46737 12.9889 2.93991 12.1923 2.93991 11.2724C2.93991 9.97147 3.99508 8.91665 5.29693 8.91665C5.54636 8.91665 5.78676 8.95546 6.01227 9.02697V6.80982C3.21654 6.86756 0.96814 9.15072 0.96814 11.9587C0.96814 13.3604 1.52803 14.6312 2.43676 15.5597C3.25657 16.1098 4.24345 16.4308 5.30531 16.4308C8.15105 16.4308 10.4581 14.1249 10.4581 11.2805L10.458 5.5945Z" fill="black"/>
<path id="Vector_3" d="M14.3429 4.64371V4.05083C13.6138 4.05193 12.899 3.84783 12.2803 3.46186C12.828 4.06109 13.5491 4.47432 14.3429 4.64383M10.5007 0.829853C10.4821 0.723844 10.4679 0.617125 10.458 0.50996V0.151611H7.65392V11.2805C7.64946 12.5777 6.59605 13.6282 5.2969 13.6282C4.9286 13.6288 4.56533 13.5427 4.23645 13.3769C4.66713 13.9418 5.34725 14.3065 6.11272 14.3065C7.41175 14.3065 8.46529 13.2561 8.46986 11.9587V0.829911L10.5007 0.829853ZM6.01242 6.80975V6.17846C5.77811 6.14644 5.54189 6.13041 5.3054 6.13051C2.45936 6.13051 0.152344 8.4363 0.152344 11.2805C0.152344 13.0636 1.05903 14.6351 2.43685 15.5595C1.52811 14.6311 0.968227 13.3603 0.968227 11.9586C0.968227 9.15071 3.21656 6.86749 6.01242 6.80975Z" fill="#00F2EA"/>
</g>
<defs>
<clipPath id="clip0_1_147">
<rect width="15.0069" height="17" fill="white" transform="translate(0.152344 0.151611)"/>
</clipPath>
</defs>
</svg>
