<svg width="14" height="14" viewBox="0 0 14 14" fill="none" xmlns="http://www.w3.org/2000/svg">
<path id="Vector" fill-rule="evenodd" clip-rule="evenodd" d="M9.67823 8.17222C9.51681 8.09151 8.72544 7.70259 8.5781 7.64843C8.43077 7.5948 8.32352 7.56826 8.21573 7.72968C8.10848 7.89001 7.80027 8.25293 7.70656 8.36018C7.61231 8.46797 7.51861 8.48097 7.35773 8.4008C7.19686 8.31955 6.67794 8.15001 6.06315 7.60184C5.58486 7.17501 5.26148 6.64797 5.16778 6.48655C5.07407 6.32568 5.15748 6.23847 5.23819 6.1583C5.31078 6.08626 5.39907 5.97035 5.47977 5.87664C5.56048 5.78239 5.58703 5.71522 5.64065 5.60743C5.69482 5.50018 5.66773 5.40647 5.62711 5.32576C5.58703 5.24506 5.26528 4.4526 5.13094 4.13031C5.0004 3.81668 4.86769 3.85947 4.76911 3.85406C4.67486 3.84972 4.56761 3.84864 4.46036 3.84864C4.35311 3.84864 4.17869 3.88872 4.03136 4.05014C3.88349 4.21102 3.46803 4.60047 3.46803 5.39293C3.46803 6.18485 4.04436 6.95022 4.12507 7.05801C4.20578 7.16526 5.25986 8.79134 6.87457 9.48847C7.25915 9.65421 7.55869 9.75334 7.79215 9.82701C8.17781 9.94996 8.52881 9.93263 8.80615 9.89092C9.11489 9.84488 9.75839 9.50146 9.89273 9.12555C10.0265 8.74963 10.0265 8.42734 9.98643 8.36018C9.94635 8.29301 9.8391 8.25293 9.67768 8.17222H9.67823ZM6.74131 12.1822H6.73915C5.78009 12.1823 4.83864 11.9245 4.01349 11.4358L3.81849 11.3198L1.79157 11.8518L2.3327 9.87576L2.20541 9.67317C1.66923 8.8197 1.38548 7.83193 1.38695 6.82401C1.38803 3.87193 3.78978 1.47019 6.74348 1.47019C8.17348 1.47019 9.51789 2.0281 10.5286 3.03993C11.0272 3.53641 11.4223 4.12682 11.6912 4.777C11.9601 5.42718 12.0974 6.12422 12.0951 6.8278C12.0941 9.77988 9.69231 12.1822 6.74131 12.1822ZM11.2978 2.27131C10.701 1.67056 9.99089 1.19423 9.20865 0.869913C8.42641 0.545598 7.58758 0.37975 6.74077 0.38198C3.1907 0.38198 0.300367 3.27177 0.299284 6.82347C0.297639 7.95379 0.594153 9.06455 1.15891 10.0437L0.245117 13.382L3.65978 12.486C4.60438 13.0007 5.66291 13.2704 6.73861 13.2704H6.74131C10.2914 13.2704 13.1817 10.3806 13.1828 6.82834C13.1854 5.98187 13.0202 5.14328 12.6966 4.36108C12.3731 3.57887 11.8976 2.86859 11.2978 2.27131Z" fill="white"/>
</svg>
