<svg width="16" height="11" viewBox="0 0 16 11" fill="none" xmlns="http://www.w3.org/2000/svg">
<path id="Vector" d="M14.8393 2.0372C14.7539 1.71918 14.5865 1.42917 14.3538 1.19619C14.1211 0.963202 13.8313 0.79542 13.5134 0.70963C12.3432 0.394898 7.65234 0.394897 7.65234 0.394897C7.65234 0.394897 2.9615 0.394897 1.79129 0.707955C1.47325 0.793467 1.1833 0.961157 0.950568 1.19418C0.717835 1.42721 0.550512 1.71737 0.465402 2.03552C0.152344 3.2074 0.152344 5.65159 0.152344 5.65159C0.152344 5.65159 0.152344 8.09579 0.465402 9.26599C0.637835 9.9122 1.14676 10.4211 1.79129 10.5936C2.9615 10.9083 7.65234 10.9083 7.65234 10.9083C7.65234 10.9083 12.3432 10.9083 13.5134 10.5936C14.1596 10.4211 14.6669 9.9122 14.8393 9.26599C15.1523 8.09579 15.1523 5.65159 15.1523 5.65159C15.1523 5.65159 15.1523 3.2074 14.8393 2.0372ZM6.16239 7.8949V3.40829L10.0463 5.63485L6.16239 7.8949Z" fill="#FF0000"/>
</svg>
